<svg width="243" height="88" viewBox="0 0 243 88" fill="none" xmlns="http://www.w3.org/2000/svg">
<path d="M226.495 32.6106C206.329 33.8264 186.182 35.005 166.015 36.4072C164.617 36.4955 162.897 38.0548 162.092 39.375C143.068 70.9869 114.746 86.7089 78.2025 87.3649C72.1274 87.4742 65.9472 85.664 59.9226 81.9722C51.9641 77.1184 50.0395 67.8879 55.0793 60.0231C59.4822 53.1438 66.0926 49.1045 73.2038 45.7378C88.9752 38.3389 105.907 34.8385 122.911 31.9346C133.688 30.09 144.556 28.8978 155.705 27.334C155.685 22.2841 152.144 16.9052 147.641 15.1007C139.119 11.6425 134.274 11.5325 126.86 10.8733C103.594 8.79876 80.773 12.4092 58.6677 19.3203C42.2147 24.4621 26.1489 30.7792 9.91718 36.5927C8.49927 37.0909 7.09947 37.7382 5.73785 38.1248C3.61146 38.7323 1.89786 38.5214 0.990429 36.8971C-0.159955 35.477 1.61769 33.3402 2.66486 32.2817C4.38525 30.5361 6.51454 29.09 8.71694 28.0541C43.3036 11.3848 79.2699 -0.155372 118.158 0.277612C126.692 0.38174 135.314 1.79055 143.656 3.66424C155.628 6.38905 163.933 13.3311 165.098 26.7516C184.33 26.2779 203.282 25.8032 222.57 25.3111C216.99 22.4966 211.707 19.8323 206.387 17.1492C205.494 16.6989 204.545 16.3602 203.69 15.8354C201.365 14.4298 197.922 13.2999 199.462 9.6902C200.965 6.15495 204.221 7.75012 206.36 8.78241C217.243 13.9445 228.107 19.237 238.727 24.9199C243.061 27.2455 243.718 31.2169 239.944 34.2597C229.105 43.1665 217.802 51.6058 206.5 59.9519C205.453 60.7309 202.749 61.3737 201.154 59.2625C200.079 57.5072 201.392 54.9962 202.495 54.0124C209.168 48.0913 216.119 42.4506 223.015 36.7353C224.23 35.7146 225.519 34.7315 226.771 33.7296C229.124 32.3961 228.08 32.5229 226.495 32.6106ZM154.064 38.2664C154.851 36.9834 151.96 37.7187 151.513 37.7731C128.099 40.6174 104.831 44.189 82.72 52.7772C76.8051 55.0673 71.0727 58.4761 66.1208 62.4652C59.5618 67.7904 61.0477 74.5597 69.2197 76.9546C74.5064 78.5009 80.3356 79.4342 85.8154 79.0246C109.095 77.3724 133.832 63.7621 144.927 50.8313C149.118 45.852 149.906 44.2894 154.064 38.2664Z" fill="url(#paint0_linear)"/>
<defs>
<linearGradient id="paint0_linear" x1="148.543" y1="-23.4805" x2="200.24" y2="166.83" gradientUnits="userSpaceOnUse">
<stop stop-color="#A18CD1"/>
<stop offset="1" stop-color="#FBC2EB"/>
</linearGradient>
</defs>
</svg>
