<svg width="170" height="170" viewBox="0 0 170 170" fill="none" xmlns="http://www.w3.org/2000/svg">
<circle cx="85" cy="85" r="85" fill="url(#paint0_linear)"/>
<path d="M80.4671 53.8569C81.8755 54.5564 83.4266 54.9204 84.9991 54.9204C86.5715 54.9204 88.1227 54.5564 89.531 53.8569C89.9703 53.6373 90.3044 53.2521 90.4597 52.7861C90.6151 52.3201 90.5789 51.8115 90.3593 51.3722C90.1396 50.9329 89.7544 50.5988 89.2884 50.4435C88.8224 50.2882 88.3139 50.3243 87.8745 50.544C86.9811 50.9882 85.9969 51.2194 84.9991 51.2194C84.0013 51.2194 83.017 50.9882 82.1236 50.544C81.6843 50.3243 81.1757 50.2882 80.7097 50.4435C80.2437 50.5988 79.8585 50.9329 79.6389 51.3722C79.4192 51.8115 79.3831 52.3201 79.5384 52.7861C79.6937 53.2521 80.0278 53.6373 80.4671 53.8569Z" fill="white"/>
<path d="M133.148 75.2963H127.593V56.7778C127.593 56.2866 127.397 55.8156 127.05 55.4683C126.703 55.121 126.232 54.9259 125.741 54.9259H106.322C106.537 53.8529 106.647 52.7614 106.649 51.6671C106.649 51.5188 106.618 51.3711 106.614 51.2222H109.074C109.565 51.2222 110.036 51.0271 110.384 50.6798C110.731 50.3325 110.926 49.8615 110.926 49.3704V45.6667H114.63C115.121 45.6667 115.592 45.4716 115.939 45.1243C116.286 44.777 116.481 44.306 116.481 43.8148V36.4074C116.481 35.9163 116.286 35.4452 115.939 35.098C115.592 34.7507 115.121 34.5556 114.63 34.5556H110.926V30.8519C110.926 30.3607 110.731 29.8897 110.384 29.5424C110.036 29.1951 109.565 29 109.074 29H101.667C101.176 29 100.704 29.1951 100.357 29.5424C100.01 29.8897 99.8148 30.3607 99.8148 30.8519V34.5556H96.1111C95.62 34.5556 95.1489 34.7507 94.8017 35.098C94.4544 35.4452 94.2593 35.9163 94.2593 36.4074V40.2688C92.1327 40.5975 90.1539 41.5571 88.5789 43.0234C87.6011 43.9214 86.3214 44.419 84.9937 44.4173C83.6661 44.4156 82.3876 43.9148 81.412 43.0144C79.4235 41.1498 76.8 40.1118 74.0741 40.1111C71.5225 40.1103 69.0564 41.031 67.1296 42.7037C65.1978 44.3708 63.9253 46.6734 63.5417 49.1961C63.4151 50.0134 63.3517 50.8393 63.3519 51.6664C63.3535 52.7607 63.4621 53.8521 63.6759 54.9252H44.2593C43.7681 54.9252 43.2971 55.1203 42.9498 55.4676C42.6025 55.8149 42.4074 56.2859 42.4074 56.7771V75.2956H36.8519C36.3607 75.2956 35.8897 75.4907 35.5424 75.838C35.1951 76.1853 35 76.6563 35 77.1475V138.259C35 138.75 35.1951 139.221 35.5424 139.569C35.8897 139.916 36.3607 140.111 36.8519 140.111H133.148C133.639 140.111 134.11 139.916 134.458 139.569C134.805 139.221 135 138.75 135 138.259V77.1482C135 76.657 134.805 76.186 134.458 75.8387C134.11 75.4914 133.639 75.2963 133.148 75.2963ZM90.5556 129V121.593H95.4944L102.407 126.778C102.601 126.93 102.824 127.041 103.062 127.106C103.3 127.171 103.548 127.188 103.792 127.156C104.037 127.123 104.272 127.043 104.485 126.918C104.698 126.794 104.883 126.628 105.031 126.431C105.179 126.233 105.286 126.009 105.346 125.769C105.406 125.53 105.417 125.282 105.38 125.038C105.342 124.794 105.256 124.561 105.127 124.351C104.998 124.141 104.829 123.958 104.628 123.815L97.2208 118.259C96.9008 118.019 96.5114 117.889 96.1111 117.889V112.333H99.8148V114.185C99.8148 114.676 100.01 115.147 100.357 115.495C100.704 115.842 101.176 116.037 101.667 116.037H109.074C109.565 116.037 110.036 115.842 110.384 115.495C110.731 115.147 110.926 114.676 110.926 114.185V106.778C110.926 106.287 110.731 105.816 110.384 105.468C110.036 105.121 109.565 104.926 109.074 104.926H101.667C101.176 104.926 100.704 105.121 100.357 105.468C100.01 105.816 99.8148 106.287 99.8148 106.778V108.63H96.1111V103.834C96.1097 102.958 95.8513 102.102 95.368 101.373C94.8847 100.643 94.1977 100.071 93.3923 99.7278C92.5869 99.3848 91.6985 99.2858 90.8374 99.4432C89.9763 99.6005 89.1803 100.007 88.5481 100.613L88.1157 101.006C87.0421 100.487 85.8282 100.332 84.6585 100.565C83.4887 100.798 82.4269 101.406 81.6343 102.297L79.1574 105.052C78.9943 105.232 78.8684 105.443 78.787 105.673C78.7056 105.902 78.6703 106.145 78.683 106.388C78.6958 106.631 78.7564 106.869 78.8614 107.089C78.9664 107.308 79.1137 107.505 79.2949 107.668L84.8042 112.621C85.1438 112.927 85.5846 113.097 86.0417 113.097C86.0743 113.097 86.1067 113.097 86.1394 113.095C86.6302 113.069 87.0906 112.849 87.4197 112.484L89.8937 109.729C90.6308 108.909 91.1075 107.889 91.2634 106.797C91.4192 105.706 91.2471 104.592 90.769 103.599L91.1053 103.291C91.522 102.873 92.4074 103.208 92.4074 103.834V117.889H82.0627L75.1977 111.024C75.0267 110.848 74.8223 110.707 74.5966 110.611C74.3709 110.515 74.1282 110.464 73.8827 110.462C73.6373 110.46 73.3939 110.508 73.1668 110.601C72.9397 110.694 72.7333 110.831 72.5598 111.005C72.3862 111.178 72.2489 111.385 72.1558 111.612C72.0627 111.839 72.0157 112.082 72.0175 112.328C72.0193 112.573 72.0699 112.816 72.1663 113.042C72.2627 113.267 72.4031 113.472 72.5792 113.643L79.9866 121.05C80.1585 121.222 80.3627 121.359 80.5874 121.452C80.8121 121.545 81.053 121.593 81.2963 121.593H86.8519V129H68.3333V93.8148H112.778V99.6C112.781 101.942 113.43 104.238 114.652 106.235C115.875 108.232 117.625 109.854 119.71 110.921C118.702 111.782 117.891 112.85 117.334 114.052C116.777 115.255 116.486 116.564 116.481 117.889V129H90.5556ZM103.519 108.63H107.222V112.333H103.519V108.63ZM87.6132 105.915C87.6272 106.158 87.5925 106.402 87.5111 106.631C87.4297 106.861 87.3033 107.072 87.1394 107.252L85.9028 108.63L83.1481 106.153L84.3889 104.776C84.5513 104.596 84.7478 104.449 84.9672 104.344C85.1865 104.239 85.4243 104.179 85.667 104.166C85.9097 104.153 86.1526 104.188 86.3817 104.27C86.6108 104.351 86.8216 104.476 87.0021 104.639C87.1837 104.8 87.3313 104.996 87.4361 105.215C87.541 105.435 87.601 105.672 87.6127 105.915H87.6132ZM46.1111 93.8148H64.6296V101.222H46.1111V93.8148ZM123.889 108.483C121.811 108.101 119.933 107.003 118.58 105.38C117.226 103.758 116.484 101.713 116.481 99.6V93.8148H123.889V108.483ZM120.185 117.889C120.187 116.74 120.543 115.62 121.206 114.682C121.87 113.744 122.806 113.034 123.889 112.65V129H120.185V117.889ZM97.963 38.2593H101.667C102.158 38.2593 102.629 38.0642 102.976 37.7169C103.323 37.3696 103.519 36.8985 103.519 36.4074V32.7037H107.222V36.4074C107.222 36.8985 107.417 37.3696 107.765 37.7169C108.112 38.0642 108.583 38.2593 109.074 38.2593H112.778V41.963H109.074C108.583 41.963 108.112 42.1581 107.765 42.5054C107.417 42.8526 107.222 43.3237 107.222 43.8148V47.5185H103.519V43.8148C103.519 43.3237 103.323 42.8526 102.976 42.5054C102.629 42.1581 102.158 41.963 101.667 41.963H97.963V38.2593ZM67.2007 49.7639C67.4498 48.1108 68.2826 46.6015 69.5481 45.5093C72.1722 43.2269 76.3262 43.3354 78.8743 45.7153C80.5241 47.2867 82.7148 48.164 84.9932 48.1657C87.2717 48.1674 89.4636 47.2933 91.1157 45.7243C92.0128 44.8924 93.1109 44.3081 94.3021 44.0289C94.3495 44.4766 94.5603 44.891 94.894 45.1931C95.2277 45.4952 95.661 45.6638 96.1111 45.6667H99.8148V49.3704C99.8148 49.8615 100.01 50.3325 100.357 50.6798C100.704 51.0271 101.176 51.2222 101.667 51.2222H102.911C102.916 51.3713 102.945 51.5183 102.945 51.6671C102.951 53.2071 102.677 54.7353 102.137 56.1775C101.911 56.8455 101.621 57.4898 101.271 58.1016C97.8943 64.1762 95.7195 70.8443 94.865 77.7414L94.7368 78.8083C94.6627 79.3738 94.3855 79.893 93.9567 80.2691C93.528 80.6452 92.9771 80.8525 92.4068 80.8523C91.8365 80.8521 91.2857 80.6444 90.8573 80.2681C90.4288 79.8917 90.1519 79.3722 90.0782 78.8067L88.912 69.4928C88.7943 68.5382 88.3316 67.6596 87.6111 67.0224C86.8905 66.3853 85.9619 66.0336 85 66.0336C84.0381 66.0336 83.1095 66.3853 82.3889 67.0224C81.6684 67.6596 81.2057 68.5382 81.088 69.4928L79.9215 78.8081C79.8478 79.373 79.5711 79.8919 79.1432 80.268C78.7153 80.6442 78.1652 80.8519 77.5955 80.8526C77.0258 80.8533 76.4752 80.6468 76.0464 80.2717C75.6176 79.8966 75.3397 79.3784 75.2646 78.8137L75.1326 77.734C74.2762 70.8285 72.0965 64.1528 68.7127 58.0725C68.3611 57.4535 68.0704 56.8018 67.8447 56.1266C67.3148 54.6998 67.0471 53.1889 67.0544 51.6669C67.0542 51.0297 67.1031 50.3935 67.2007 49.7639ZM46.1111 58.6296H64.8521C65.0426 59.064 65.2564 59.4878 65.4924 59.8993C68.6366 65.5553 70.6616 71.7641 71.4565 78.1863L71.5887 79.2641C71.7737 80.7258 72.4855 82.0697 73.5907 83.044C74.6959 84.0183 76.1186 84.5559 77.5919 84.5562C79.0652 84.5564 80.488 84.0192 81.5935 83.0452C82.699 82.0713 83.4113 80.7276 83.5968 79.266L84.7632 69.9523C84.7921 69.7208 85.2081 69.7208 85.237 69.9523L86.4035 79.2641C86.589 80.7262 87.3016 82.0704 88.4076 83.0445C89.5136 84.0186 90.937 84.5557 92.4108 84.555C93.8846 84.5544 95.3075 84.016 96.4127 83.0409C97.5178 82.0659 98.2292 80.7211 98.4134 79.2588L98.5417 78.194C99.3344 71.7802 101.354 65.579 104.491 59.9287C104.732 59.5078 104.951 59.0743 105.147 58.6301H123.889V90.1111H46.1111V58.6296ZM38.7037 79H42.4074V136.407H38.7037V79ZM46.1111 104.926H64.6296V136.407H46.1111V104.926ZM68.3333 132.704H123.889V136.407H68.3333V132.704ZM131.296 136.407H127.593V79H131.296V136.407Z" fill="white"/>
<path d="M55.3913 114.163H51.6663C51.1752 114.163 50.7041 114.359 50.3568 114.706C50.0096 115.053 49.8145 115.524 49.8145 116.015V119.741C49.8145 120.232 50.0096 120.703 50.3568 121.05C50.7041 121.398 51.1752 121.593 51.6663 121.593C52.1574 121.593 52.6285 121.398 52.9758 121.05C53.3231 120.703 53.5182 120.232 53.5182 119.741V117.867H55.3918C55.8829 117.867 56.3539 117.672 56.7012 117.325C57.0485 116.977 57.2436 116.506 57.2436 116.015C57.2436 115.524 57.0485 115.053 56.7012 114.706C56.3539 114.359 55.8829 114.163 55.3918 114.163H55.3913Z" fill="white"/>
<defs>
<linearGradient id="paint0_linear" x1="83.9375" y1="-3.16326" x2="243.461" y2="106.084" gradientUnits="userSpaceOnUse">
<stop stop-color="#A18CD1"/>
<stop offset="1" stop-color="#FBC2EB"/>
</linearGradient>
</defs>
</svg>
