<svg width="184" height="184" viewBox="0 0 184 184" fill="none" xmlns="http://www.w3.org/2000/svg">
<path d="M178.532 131.089L141.143 108.08C140.945 107.956 140.735 107.858 140.47 107.741C140.079 107.534 139.691 107.332 139.363 107.212C139.024 107.071 138.682 106.97 138.282 106.861C137.917 106.754 137.549 106.654 137.198 106.588C136.796 106.513 136.396 106.479 135.847 106.435C135.611 106.404 135.376 106.378 135.131 106.378H117.874V80.4914H123.622V86.2414C123.622 87.8312 124.907 89.1164 126.497 89.1164H135.125V91.9914C135.125 93.5812 136.411 94.8664 138.001 94.8664C139.591 94.8664 140.876 93.5812 140.876 91.9914V89.1164H146.626V91.9914C146.626 93.5812 147.911 94.8664 149.501 94.8664C151.091 94.8664 152.376 93.5812 152.376 91.9914V89.1164H158.127V91.9914C158.127 93.5812 159.412 94.8664 161.002 94.8664C162.592 94.8664 163.877 93.5812 163.877 91.9914V89.1164H172.508C174.098 89.1164 175.384 87.8312 175.384 86.2414V68.9914C175.384 67.4015 174.098 66.1164 172.508 66.1164H126.497C124.907 66.1164 123.622 67.4015 123.622 68.9914V74.7414H117.874V14.375H146.626V14.5992C136.888 16.0023 129.375 24.3771 129.375 34.5C129.375 45.5946 138.406 54.625 149.501 54.625C160.597 54.625 169.627 45.5946 169.627 34.5C169.627 24.3771 162.115 16.0023 152.376 14.5992V14.375H172.52C174.11 14.375 175.395 13.0899 175.395 11.5V2.875C175.395 1.28513 174.11 0 172.52 0H114.999C108.656 0 103.498 5.15775 103.498 11.5V74.7558H100.563V74.75C100.563 73.1601 99.2777 71.875 97.6877 71.875C96.0977 71.875 94.8125 73.1601 94.8125 74.75V74.7558H91.9977V63.25C91.9977 61.6601 90.7125 60.375 89.1225 60.375C87.5326 60.375 86.2474 61.6601 86.2474 63.25V74.7558H83.3722V74.75C83.3722 73.1601 82.087 71.875 80.497 71.875C78.907 71.875 77.6218 73.1601 77.6218 74.75V74.7558H71.8715C70.2815 74.7558 68.9963 76.0409 68.9963 77.6308V86.2558C68.9963 91.011 72.8663 94.8807 77.6189 94.8807H100.623C101.638 94.8807 102.596 94.6738 103.498 94.3489V97.75H71.8715C70.2815 97.75 68.9963 99.0351 68.9963 100.625V106.381H66.1757L20.7422 44.9132C18.5829 41.9922 15.1212 40.2471 11.4812 40.2471C9.00859 40.2471 6.6452 41.0262 4.65558 42.4982C-0.436363 46.2702 -1.5203 53.4836 2.2433 58.5868L51.0926 124.677C51.2507 124.899 51.4232 125.088 51.4807 125.114C51.8574 125.583 52.2628 126.017 52.74 126.448C52.9729 126.649 53.2087 126.848 53.4215 127.003C53.8499 127.328 54.3013 127.618 54.9539 127.986C55.1494 128.098 55.3536 128.211 55.5635 128.305C56.104 128.553 56.6704 128.748 57.2799 128.921C57.3547 128.947 57.4208 128.961 57.4927 128.981V138H48.8672C47.2772 138 45.992 139.285 45.992 140.875V161.23C36.2538 162.633 28.7409 171.008 28.7409 181.125C28.7409 182.715 30.0261 184 31.6161 184H158.124C159.714 184 160.999 182.715 160.999 181.125C160.999 158.315 143.187 139.636 120.747 138.147V129.381H131.874L166.468 150.67C168.279 151.791 170.361 152.381 172.491 152.381C176.522 152.381 180.188 150.334 182.293 146.91C185.622 141.51 183.931 134.415 178.532 131.089ZM129.372 71.8692H169.633V83.3692H163.877V77.6192C163.877 76.0294 162.592 74.7442 161.002 74.7442C159.412 74.7442 158.127 76.0294 158.127 77.6192V83.3692H152.376V77.6192C152.376 76.0294 151.091 74.7442 149.501 74.7442C147.911 74.7442 146.626 76.0294 146.626 77.6192V83.3692H140.876V77.6192C140.876 76.0294 139.591 74.7442 138.001 74.7442C136.411 74.7442 135.125 76.0294 135.125 77.6192V83.3692H129.372V71.8692ZM163.877 34.5C163.877 42.4264 157.428 48.875 149.501 48.875C141.574 48.875 135.125 42.4264 135.125 34.5C135.125 26.5708 141.574 20.1193 149.501 20.1193C157.428 20.1193 163.877 26.5708 163.877 34.5ZM114.999 5.75H169.645V8.625H114.999C113.409 8.625 112.124 9.91012 112.124 11.5V106.381H109.249V11.5C109.249 8.32887 111.828 5.75 114.999 5.75ZM103.498 86.2558C103.498 87.8428 102.21 89.1308 100.623 89.1308H77.6189C76.0347 89.1308 74.7466 87.8428 74.7466 86.2558V80.5058H103.498V86.2558ZM74.7466 103.5H103.498V106.381H74.7466V103.5ZM57.4956 161H51.7452V143.75H57.4956V161ZM155.105 178.25H34.7874C36.1215 171.698 41.9294 166.75 48.87 166.75H60.3708C61.9607 166.75 63.2459 165.465 63.2459 163.875V143.75H117.874C137.512 143.75 153.63 158.985 155.105 178.25ZM114.999 138H63.2459V129.381H114.999V138ZM177.399 143.897C175.792 146.51 172.112 147.401 169.489 145.777L134.2 124.056C133.745 123.777 133.225 123.631 132.693 123.631H60.3708C59.9711 123.631 59.5686 123.582 59.1689 123.493C59.1114 123.473 58.867 123.395 58.8095 123.378C58.5134 123.294 58.223 123.197 57.9614 123.079L57.5962 122.875C57.3518 122.739 57.1218 122.59 56.8688 122.4C56.748 122.311 56.6359 122.216 56.5525 122.142C56.3369 121.949 56.1414 121.73 55.9171 121.457C55.8366 121.362 55.7475 121.27 55.736 121.27C55.7331 121.27 55.7331 121.279 55.7475 121.299L6.86946 55.1713C4.98622 52.6183 5.52963 49.0072 8.07704 47.1212C10.5612 45.2899 14.2932 45.8591 16.1189 48.3345L62.4121 110.966C62.9527 111.7 63.8095 112.131 64.7238 112.131L106.328 112.134C106.345 112.134 106.359 112.142 106.376 112.142C106.394 112.142 106.408 112.134 106.425 112.134H114.959C114.973 112.134 114.988 112.142 115.005 112.142C115.022 112.142 115.037 112.134 115.051 112.134H135.062C135.214 112.154 135.367 112.174 135.608 112.188C135.781 112.2 135.953 112.205 136.155 112.246C136.336 112.277 136.505 112.332 136.819 112.424C136.934 112.456 137.055 112.481 137.256 112.565C137.437 112.631 137.595 112.729 137.845 112.861C137.897 112.887 138.093 112.964 138.144 112.99L175.516 135.99C178.216 137.646 179.061 141.194 177.399 143.897Z" fill="url(#paint0_linear)"/>
<defs>
<linearGradient id="paint0_linear" x1="90.85" y1="-3.42376" x2="263.511" y2="114.821" gradientUnits="userSpaceOnUse">
<stop stop-color="#A18CD1"/>
<stop offset="1" stop-color="#FBC2EB"/>
</linearGradient>
</defs>
</svg>
