<svg width="170" height="170" viewBox="0 0 170 170" fill="none" xmlns="http://www.w3.org/2000/svg">
<circle cx="85" cy="85" r="85" fill="url(#paint0_linear)"/>
<path d="M36.7871 65.0201C35.7999 65.0201 35 65.8205 35 66.8077C35 67.7948 35.8004 68.5948 36.7871 68.5948C37.7739 68.5948 38.5746 67.7944 38.5746 66.8077C38.5746 65.8209 37.7743 65.0201 36.7871 65.0201Z" fill="white"/>
<path d="M124.97 114.901C124.046 114.901 123.298 115.649 123.298 116.572V119.916C123.298 120.839 124.046 121.588 124.97 121.588C125.894 121.588 126.641 120.839 126.641 119.916V116.572C126.641 115.649 125.894 114.901 124.97 114.901Z" fill="white"/>
<path d="M124.97 124.931C124.046 124.931 123.298 125.68 123.298 126.603V129.946C123.298 130.87 124.046 131.618 124.97 131.618C125.894 131.618 126.641 130.87 126.641 129.946V126.603C126.641 125.68 125.894 124.931 124.97 124.931Z" fill="white"/>
<path d="M121.626 121.588H118.282C117.358 121.588 116.61 122.336 116.61 123.259C116.61 124.183 117.358 124.931 118.282 124.931H121.626C122.55 124.931 123.297 124.183 123.297 123.259C123.297 122.336 122.55 121.588 121.626 121.588Z" fill="white"/>
<path d="M131.657 121.588H128.313C127.389 121.588 126.642 122.336 126.642 123.259C126.642 124.183 127.389 124.931 128.313 124.931H131.657C132.581 124.931 133.329 124.183 133.329 123.259C133.329 122.336 132.581 121.588 131.657 121.588Z" fill="white"/>
<path d="M48.9048 49.7023C52.1309 49.7023 54.756 47.0772 54.756 43.8511C54.756 40.6251 52.1309 38 48.9048 38C45.6788 38 43.0537 40.6251 43.0537 43.8511C43.0537 47.0772 45.6792 49.7023 48.9048 49.7023ZM48.9048 41.3435C50.2878 41.3435 51.4125 42.4682 51.4125 43.8511C51.4125 45.2341 50.2878 46.3588 48.9048 46.3588C47.5219 46.3588 46.3972 45.2341 46.3972 43.8511C46.3972 42.4682 47.5223 41.3435 48.9048 41.3435Z" fill="white"/>
<path d="M56.8476 120.188C55.8605 120.188 55.0605 120.988 55.0605 121.975C55.0605 122.963 55.8609 123.762 56.8476 123.762C57.8344 123.762 58.6352 122.962 58.6352 121.975C58.6352 120.989 57.8348 120.188 56.8476 120.188Z" fill="white"/>
<path d="M106.58 64.748H111.595V69.7633C111.595 70.6865 112.343 71.435 113.267 71.435H118.282C119.206 71.435 119.954 70.6865 119.954 69.7633V64.748H124.969C125.893 64.748 126.641 63.9995 126.641 63.0763V58.061C126.641 57.1378 125.893 56.3893 124.969 56.3893H119.954V51.374C119.954 50.4508 119.206 49.7023 118.282 49.7023H113.267C112.343 49.7023 111.595 50.4508 111.595 51.374V56.3893H106.58C105.656 56.3893 104.908 57.1378 104.908 58.061V63.0763C104.908 63.9995 105.656 64.748 106.58 64.748ZM108.252 59.7328H113.267C114.191 59.7328 114.939 58.9843 114.939 58.061V53.0458H116.61V58.061C116.61 58.9843 117.358 59.7328 118.282 59.7328H123.297V61.4045H118.282C117.358 61.4045 116.61 62.1531 116.61 63.0763V68.0915H114.939V63.0763C114.939 62.1531 114.191 61.4045 113.267 61.4045H108.252V59.7328Z" fill="white"/>
<path d="M86.5194 81.4656H94.8782C95.8022 81.4656 96.5499 80.717 96.5499 79.7938C96.5499 78.8706 95.8022 78.1221 94.8782 78.1221H86.5194C85.5953 78.1221 84.8477 78.8706 84.8477 79.7938C84.8477 80.717 85.5958 81.4656 86.5194 81.4656Z" fill="white"/>
<path d="M109.924 86.4808H86.5194C85.5953 86.4808 84.8477 87.2294 84.8477 88.1526C84.8477 89.0758 85.5953 89.8243 86.5194 89.8243H109.924C110.848 89.8243 111.596 89.0758 111.596 88.1526C111.596 87.2294 110.848 86.4808 109.924 86.4808Z" fill="white"/>
<path d="M109.924 94.8396H86.5194C85.5953 94.8396 84.8477 95.5881 84.8477 96.5114C84.8477 97.4346 85.5953 98.1831 86.5194 98.1831H109.924C110.848 98.1831 111.596 97.4346 111.596 96.5114C111.596 95.5881 110.848 94.8396 109.924 94.8396Z" fill="white"/>
<path d="M77.3242 66.4198C75.563 66.4198 73.9999 67.2185 72.9266 68.4535C71.1939 68.0272 69.3186 68.2165 67.7413 69.0816C67.0066 69.4866 66.1987 69.485 65.4606 69.0816C64.4091 68.5028 63.2159 68.1969 62.0109 68.1969C58.0502 68.1969 54.8291 71.4188 54.8291 75.3787C54.8291 75.4832 54.8387 75.5877 54.8584 75.6905L56.5218 84.4388L57.8098 96.0169C57.9452 97.2448 58.848 98.237 60.0563 98.4878C60.2506 98.5279 60.4466 98.5475 60.6376 98.5475C61.6432 98.5475 62.5869 98.0147 63.1013 97.1148L66.574 90.9406L70.1018 97.114C70.7124 98.1856 71.9303 98.741 73.1448 98.4886C74.3531 98.2387 75.2575 97.2461 75.3946 96.0186L76.6613 84.5662L77.8943 78.0648C80.8499 77.7735 83.1753 75.3022 83.1753 72.2713C83.1753 69.0449 80.5503 66.4198 77.3242 66.4198ZM72.2404 94.1195L69.4766 89.2806C68.8789 88.2366 67.8048 87.613 66.6016 87.613H66.5999C65.3967 87.6138 64.3242 88.2374 63.7283 89.2814L60.9628 94.1186L59.8264 83.9418L58.1759 75.2354C58.2512 73.185 59.9426 71.54 62.0109 71.54C62.6542 71.54 63.2907 71.7025 63.849 72.0101C65.573 72.9589 67.6318 72.9593 69.3524 72.011C70.0195 71.6453 70.7914 71.509 71.5433 71.5751C71.5157 71.8058 71.4731 72.0323 71.4731 72.2705C71.4731 74.5132 72.7557 76.4424 74.6134 77.4241L73.3571 84.0689L72.2404 94.1195ZM77.3242 74.7786C75.9412 74.7786 74.8166 73.6539 74.8166 72.2709C74.8166 70.888 75.9412 69.7633 77.3242 69.7633C78.7071 69.7633 79.8318 70.888 79.8318 72.2709C79.8318 73.6539 78.7071 74.7786 77.3242 74.7786Z" fill="white"/>
<path d="M99.8937 123.259H96.1327C94.7242 118.355 94.537 113.961 95.5651 109.885H122.518C125.713 109.885 128.313 107.285 128.313 104.09V75.1108C132.4 71.5826 135 66.3784 135 60.5686C135 49.9677 126.375 41.3435 115.775 41.3435C106.612 41.3435 98.9366 47.7935 97.0212 56.3893H47.1784C43.9832 56.3893 41.3828 58.9893 41.3828 62.1848V104.09C41.3828 107.285 43.9836 109.885 47.1784 109.885H76.169C77.8579 114.372 77.6109 118.76 75.4402 123.259H71.4743C67.7865 123.259 64.7873 126.259 64.7873 129.946C64.7873 130.87 65.535 131.618 66.4591 131.618H104.909C105.833 131.618 106.581 130.87 106.581 129.946C106.581 126.259 103.582 123.259 99.8937 123.259ZM115.775 44.687C124.532 44.687 131.657 51.8116 131.657 60.5686C131.657 69.3257 124.532 76.4503 115.775 76.4503C107.018 76.4503 99.8937 69.3257 99.8937 60.5686C99.8937 51.8116 107.018 44.687 115.775 44.687ZM44.7259 104.09V62.1848C44.7259 60.8332 45.8263 59.7328 47.1779 59.7328H96.5924C96.5803 60.012 96.5498 60.2865 96.5498 60.5686C96.5498 71.1696 105.175 79.7938 115.775 79.7938C119.104 79.7938 122.236 78.9416 124.97 77.4467V104.09C124.97 105.441 123.869 106.542 122.518 106.542H47.1784C45.8263 106.542 44.7259 105.441 44.7259 104.09ZM79.6893 109.885H92.1297C91.2282 114.046 91.3937 118.451 92.6538 123.259H79.1034C80.8913 118.818 81.0802 114.336 79.6893 109.885ZM68.5797 128.275C69.1577 127.276 70.2385 126.603 71.4743 126.603H99.8941C101.13 126.603 102.211 127.276 102.789 128.275H68.5797Z" fill="white"/>
<defs>
<linearGradient id="paint0_linear" x1="83.9375" y1="-3.16326" x2="243.461" y2="106.084" gradientUnits="userSpaceOnUse">
<stop stop-color="#A18CD1"/>
<stop offset="1" stop-color="#FBC2EB"/>
</linearGradient>
</defs>
</svg>
