<svg width="170" height="170" viewBox="0 0 170 170" fill="none" xmlns="http://www.w3.org/2000/svg">
<circle cx="85" cy="85" r="85" fill="url(#paint0_linear)"/>
<path d="M133.535 106.877C134.344 106.877 135 106.221 135 105.412V99.4727C135 92.9596 129.856 87.6262 123.418 87.3195C126.487 84.8701 128.459 81.1012 128.459 76.8779C128.459 69.5129 122.468 63.5211 115.103 63.5211C111.125 63.5211 107.55 65.2707 105.101 68.0385C105.055 67.9543 105.007 67.8711 104.957 67.7891V62.8473C104.957 55.2061 100.639 48.5557 94.316 45.2039C94.3412 44.923 94.3568 44.6406 94.3568 44.357C94.3566 39.1975 90.1594 35 85 35C79.8406 35 75.6432 39.1975 75.6432 44.3568C75.6432 44.641 75.6588 44.924 75.684 45.2055C69.3627 48.5576 65.0463 55.2072 65.0463 62.8471V67.7891C64.9955 67.8719 64.9471 67.9559 64.9008 68.0408C62.4518 65.2717 58.8762 63.5211 54.8975 63.5211C47.5324 63.5211 41.5406 69.5129 41.5406 76.8779C41.5406 81.1012 43.5131 84.8701 46.5824 87.3195C40.1439 87.6262 35 92.9596 35 99.4727V113.822C35 114.631 35.6559 115.287 36.4648 115.287C37.2738 115.287 37.9297 114.631 37.9297 113.822V99.4727C37.9297 94.3785 42.074 90.2344 47.168 90.2344H54.8824C54.8875 90.2344 54.8924 90.2348 54.8975 90.2348C54.9025 90.2348 54.9074 90.2344 54.9125 90.2344H62.627C64.9582 90.2344 67.1557 91.1045 68.835 92.6318L66.8289 92.9785C60.2963 94.1063 55.5309 99.7381 55.498 106.377V132.07H46.2508V108.732C46.2508 108.344 46.0965 107.971 45.8217 107.696L44.6023 106.477C44.0303 105.905 43.1027 105.905 42.5309 106.477C41.9588 107.049 41.9588 107.977 42.5309 108.549L43.3211 109.339V132.07H37.9297V120.658C37.9297 119.849 37.2738 119.193 36.4648 119.193C35.6559 119.193 35 119.849 35 120.658V133.535C35 134.344 35.6559 135 36.4648 135H133.535C134.344 135 135 134.344 135 133.535V112.248C135 111.439 134.344 110.783 133.535 110.783C132.726 110.783 132.07 111.439 132.07 112.248V132.07H126.679V109.339L127.469 108.549C128.041 107.977 128.041 107.049 127.469 106.477C126.897 105.905 125.97 105.905 125.398 106.477L124.179 107.696C123.904 107.971 123.749 108.344 123.749 108.732V132.07H114.504V122.828C114.504 122.019 113.848 121.363 113.039 121.363C112.23 121.363 111.574 122.019 111.574 122.828V132.07H103.838V125.841C103.838 125.032 103.182 124.376 102.373 124.376C101.564 124.376 100.908 125.032 100.908 125.841V132.07H69.0955V125.841C69.0955 125.032 68.4396 124.376 67.6307 124.376C66.8217 124.376 66.1658 125.032 66.1658 125.841V132.07H58.4277V106.384C58.4535 101.175 62.1963 96.7512 67.3275 95.8654L69.1109 95.5572V103.47C64.9732 104.169 61.8109 107.776 61.8109 112.11V116.647C61.8109 118.978 63.7059 120.873 66.0357 120.874C66.2342 121.448 66.7777 121.861 67.4191 121.861C68.2281 121.861 68.884 121.205 68.884 120.396V118.423C68.884 117.614 68.2281 116.958 67.4191 116.958C66.7779 116.958 66.2344 117.371 66.0359 117.945C65.3217 117.943 64.7408 117.362 64.7408 116.647V112.109C64.7408 108.892 67.3584 106.274 70.576 106.274C73.7936 106.274 76.4111 108.892 76.4111 112.109V116.647C76.4111 117.362 75.8303 117.943 75.116 117.945C74.9176 117.371 74.374 116.958 73.7328 116.958C72.9238 116.958 72.268 117.614 72.268 118.423V120.396C72.268 121.205 72.9238 121.861 73.7328 121.861C74.374 121.861 74.9178 121.448 75.1162 120.874C77.4459 120.873 79.341 118.978 79.341 116.647V112.11C79.341 107.776 76.1787 104.169 72.041 103.47V95.051L72.8883 94.9045L84.1143 103.46C84.3764 103.66 84.6893 103.76 85.0021 103.76C85.315 103.76 85.6279 103.66 85.89 103.46L97.1156 94.9047L97.9598 95.0506V112.857C96.1275 113.471 94.8031 115.203 94.8031 117.239C94.8031 119.787 96.8764 121.861 99.4246 121.861C101.973 121.861 104.046 119.788 104.046 117.239C104.046 115.203 102.722 113.471 100.889 112.857V95.5568L102.675 95.8654C107.806 96.7514 111.549 101.175 111.575 106.377V115.992C111.575 116.801 112.23 117.457 113.039 117.457C113.849 117.457 114.504 116.801 114.504 115.992V106.37C114.471 99.7381 109.706 94.1063 103.174 92.9785L101.166 92.6316C102.845 91.1043 105.042 90.2346 107.373 90.2346H115.088C115.093 90.2346 115.098 90.235 115.103 90.235C115.108 90.235 115.113 90.2346 115.118 90.2346H122.832C127.926 90.2346 132.07 94.3789 132.07 99.4729V105.412C132.07 106.221 132.726 106.877 133.535 106.877ZM99.4242 118.931C98.4914 118.931 97.7324 118.172 97.7324 117.239C97.7324 116.306 98.4914 115.547 99.4242 115.547C100.357 115.547 101.116 116.306 101.116 117.239C101.116 118.172 100.357 118.931 99.4242 118.931ZM115.103 66.4506C120.852 66.4506 125.53 71.1281 125.53 76.8777C125.53 82.6223 120.86 87.2963 115.118 87.3045H115.088C109.345 87.2963 104.675 82.6223 104.675 76.8777C104.675 71.1283 109.353 66.4506 115.103 66.4506ZM102.049 68.791C102.609 69.366 102.905 70.1256 102.883 70.9297C102.841 72.4508 101.575 73.6984 100.023 73.7877V67.9C100.793 67.9219 101.51 68.2361 102.049 68.791ZM85 37.9297C88.4066 37.9297 91.2012 40.5941 91.4127 43.9484C89.3996 43.2637 87.2434 42.892 85.0016 42.892C82.7586 42.892 80.6012 43.2643 78.5871 43.9496C78.798 40.5947 81.593 37.9297 85 37.9297ZM85.0016 45.8217C94.3895 45.8217 102.027 53.4592 102.027 62.8471V65.3508C101.369 65.1008 100.664 64.9691 99.9367 64.9691H99.4723C98.1604 64.9691 97.0932 66.0365 97.0932 67.3484V69.249C91.3346 68.2674 86.1998 61.949 86.1449 61.8809C85.8672 61.5334 85.4465 61.3314 85.0016 61.3311C85.0012 61.3311 85.0008 61.3311 85.0004 61.3311C84.5561 61.3311 84.1354 61.5332 83.8572 61.8799C83.8018 61.949 78.668 68.2664 72.9098 69.2488V67.3484C72.9098 66.0365 71.8424 64.9691 70.5305 64.9691H70.0662C69.3391 64.9691 68.6342 65.1008 67.976 65.3508V62.8471C67.9762 53.4592 75.6137 45.8217 85.0016 45.8217ZM97.9594 91.765C97.8855 91.8555 97.8127 91.9471 97.7412 92.0398L93.3229 91.2764L93.3238 88.6352H95.4783C96.8465 88.6352 97.9594 89.7482 97.9594 91.1162V91.765ZM91.7916 84.8568C89.9695 86.6508 87.5582 87.6387 85.0016 87.6387C82.4449 87.6387 80.0334 86.6508 78.2115 84.8568L76.0303 82.7092C74.0473 80.7566 72.91 78.0408 72.91 75.2578V72.2113C78.2645 71.5145 82.9229 67.2195 85.001 65.009C87.0793 67.2197 91.7383 71.5152 97.0934 72.2115V75.2539C97.0934 75.2553 97.0932 75.2564 97.0932 75.2576C97.0932 78.0406 95.9559 80.7566 93.9729 82.709L91.7916 84.8568ZM72.259 92.0402C72.1873 91.9473 72.1145 91.8557 72.0406 91.765V91.1162C72.0406 89.7482 73.1537 88.6352 74.5219 88.6352H76.6797V91.2764L72.259 92.0402ZM67.1205 70.9295C67.0984 70.1254 67.3943 69.3658 67.9539 68.7908C68.4936 68.2361 69.2104 67.9217 69.9803 67.8998V73.7875C68.4285 73.6984 67.1623 72.4506 67.1205 70.9295ZM44.4703 76.8779C44.4703 71.1283 49.1479 66.4508 54.8975 66.4508C60.6471 66.4508 65.3246 71.1283 65.3246 76.8779C65.3246 82.6225 60.6551 87.2965 54.9125 87.3047H54.8824C49.1396 87.2965 44.4703 82.6225 44.4703 76.8779ZM68.2543 76.8779C68.2543 76.7193 68.2479 76.5621 68.2424 76.4049C68.8176 76.6002 69.4301 76.7104 70.0647 76.7203C70.4039 79.758 71.7855 82.6412 73.975 84.7969L74.898 85.7057H74.5221C72.1523 85.7057 70.135 87.2377 69.4045 89.3627C67.5889 88.1437 65.4568 87.4268 63.2121 87.3201C66.2816 84.8707 68.2543 81.1014 68.2543 76.8779ZM85.0016 100.453L76.8279 94.224L78.3939 93.9535C79.0963 93.832 79.6094 93.2229 79.6094 92.51V89.3619C81.2748 90.151 83.1072 90.5684 85.0016 90.5684C86.8959 90.5684 88.7283 90.1508 90.3937 89.3619L90.3926 92.5096C90.3924 93.2225 90.9055 93.832 91.608 93.9535L93.1752 94.2242L85.0016 100.453ZM100.596 89.3625C99.8654 87.2373 97.848 85.7053 95.4783 85.7053H95.1055L96.0285 84.7965C98.218 82.6408 99.5994 79.7576 99.9389 76.7199C100.572 76.71 101.184 76.6002 101.758 76.4057C101.752 76.5627 101.746 76.7193 101.746 76.8775C101.746 81.1012 103.719 84.8703 106.788 87.3197C104.543 87.4268 102.411 88.1436 100.596 89.3625Z" fill="white"/>
<defs>
<linearGradient id="paint0_linear" x1="83.9375" y1="-3.16326" x2="243.461" y2="106.084" gradientUnits="userSpaceOnUse">
<stop stop-color="#A18CD1"/>
<stop offset="1" stop-color="#FBC2EB"/>
</linearGradient>
</defs>
</svg>
