<svg width="170" height="170" viewBox="0 0 170 170" fill="none" xmlns="http://www.w3.org/2000/svg">
<circle cx="85" cy="85" r="85" fill="url(#paint0_linear)"/>
<path d="M36.7776 66.2017C35.7957 66.2017 35 66.9977 35 67.9796C35 68.9616 35.7961 69.7572 36.7776 69.7572C37.7591 69.7572 38.5556 68.9611 38.5556 67.9796C38.5556 66.9982 37.7595 66.2017 36.7776 66.2017Z" fill="white"/>
<path d="M124.569 75.4233C123.678 75.6499 123.14 76.5553 123.368 77.4449C124.134 80.4621 124.524 83.5816 124.524 86.7165C124.524 107.365 107.725 124.164 87.0758 124.164C79.3357 124.164 71.9785 121.819 65.6851 117.421H69.949C70.8681 117.421 71.6118 116.677 71.6118 115.758C71.6118 114.84 70.8681 114.095 69.949 114.095H61.0129C60.524 114.095 60.0597 114.311 59.7446 114.683C59.4278 115.057 59.2915 115.55 59.3725 116.032L60.8616 124.968C60.9963 125.781 61.7013 126.357 62.4999 126.357C62.5909 126.357 62.682 126.35 62.7743 126.334C63.6805 126.183 64.2924 125.327 64.1415 124.42L63.3833 119.869C70.3227 124.842 78.4852 127.489 87.0754 127.489C109.558 127.489 127.849 109.198 127.849 86.716C127.849 83.3052 127.425 79.9096 126.589 76.6247C126.364 75.7334 125.444 75.1984 124.569 75.4233Z" fill="white"/>
<path d="M49.6284 86.7165C49.6284 66.0682 66.4272 49.2694 87.0763 49.2694C97.9404 49.2694 108.063 53.8713 115.182 61.9689H110.161C109.242 61.9689 108.498 62.7134 108.498 63.6317C108.498 64.55 109.242 65.2946 110.161 65.2946H119.097C119.586 65.2946 120.05 65.0792 120.365 64.7068C120.682 64.3334 120.819 63.8404 120.737 63.3582L119.248 54.4221C119.098 53.5175 118.242 52.9015 117.335 53.0557C116.429 53.2066 115.817 54.0634 115.968 54.9696L116.569 58.5784C108.894 50.5103 98.3561 45.9442 87.0763 45.9442C64.5939 45.9442 46.3027 64.2345 46.3027 86.7169C46.3027 94.1418 48.3198 101.411 52.1339 107.738C52.4457 108.256 52.9961 108.542 53.5598 108.542C53.852 108.542 54.1476 108.465 54.417 108.304C55.2031 107.829 55.4562 106.807 54.9819 106.022C51.4796 100.212 49.6284 93.5366 49.6284 86.7165Z" fill="white"/>
<path d="M46.3367 42.6513C47.2558 42.6513 47.9995 41.9068 47.9995 40.9885V37.6628C47.9995 36.7445 47.2558 36 46.3367 36C45.4175 36 44.6738 36.7445 44.6738 37.6628V40.9885C44.6738 41.9068 45.4175 42.6513 46.3367 42.6513Z" fill="white"/>
<path d="M47.9995 50.9655V47.6398C47.9995 46.7215 47.2558 45.977 46.3367 45.977C45.4175 45.977 44.6738 46.7215 44.6738 47.6398V50.9655C44.6738 51.8838 45.4175 52.6283 46.3367 52.6283C47.2558 52.6283 47.9995 51.8838 47.9995 50.9655Z" fill="white"/>
<path d="M43.011 42.6513H39.6853C38.7662 42.6513 38.0225 43.3958 38.0225 44.3141C38.0225 45.2324 38.7662 45.977 39.6853 45.977H43.011C43.9301 45.977 44.6738 45.2324 44.6738 44.3141C44.6738 43.3958 43.9301 42.6513 43.011 42.6513Z" fill="white"/>
<path d="M49.6619 45.977H52.9875C53.9067 45.977 54.6504 45.2324 54.6504 44.3141C54.6504 43.3958 53.9067 42.6513 52.9875 42.6513H49.6619C48.7427 42.6513 47.999 43.3958 47.999 44.3141C47.999 45.2324 48.7427 45.977 49.6619 45.977Z" fill="white"/>
<path d="M121.996 122.467C118.787 122.467 116.176 125.078 116.176 128.287C116.176 131.496 118.787 134.107 121.996 134.107C125.205 134.107 127.816 131.496 127.816 128.287C127.816 125.078 125.205 122.467 121.996 122.467ZM121.996 130.782C120.62 130.782 119.501 129.663 119.501 128.287C119.501 126.912 120.62 125.793 121.996 125.793C123.371 125.793 124.49 126.912 124.49 128.287C124.49 129.663 123.371 130.782 121.996 130.782Z" fill="white"/>
<path d="M133.222 107.773C132.24 107.773 131.444 108.569 131.444 109.551C131.444 110.532 132.24 111.328 133.222 111.328C134.203 111.328 135 110.532 135 109.551C135 108.569 134.204 107.773 133.222 107.773Z" fill="white"/>
<path d="M63.853 77.674C63.9016 80.872 65.0211 83.9537 67.0697 86.4142C67.9448 87.4689 68.9841 89.5354 69.4048 90.805C69.6401 91.5121 70.2798 95.2406 70.8452 98.5297C71.485 102.255 72.146 106.108 72.5908 107.928C72.974 109.495 74.1189 110.742 75.65 111.264C76.1405 111.431 76.6456 111.513 77.144 111.513C78.1575 111.513 79.1477 111.176 79.9596 110.527C81.8661 109.005 82.959 106.734 82.959 104.293L82.9332 95.8641C82.9299 94.9758 83.2741 94.1406 83.9009 93.5121C84.5295 92.8827 85.3642 92.536 86.2522 92.536C88.0821 92.536 89.5696 94.0242 89.5696 95.8542V104.176C89.5696 106.458 90.263 109.351 92.2068 110.626C93.0137 111.156 94.3618 111.622 96.1951 110.821C97.8837 110.084 99.123 108.523 99.5096 106.644C100.008 104.22 100.633 100.294 101.135 97.1387C101.466 95.0589 101.84 92.7035 101.948 92.3069C102.252 92.7817 102.77 93.0797 103.339 93.0797C103.946 93.0797 104.506 92.7484 104.797 92.215L106.783 88.5863L110.411 86.6013C110.945 86.3091 111.276 85.7495 111.276 85.1422C111.276 84.534 110.945 83.9745 110.411 83.683L107.224 81.9408C108.638 77.76 108.029 73.198 105.448 69.0293C104.703 67.8258 103.68 66.7965 102.493 66.0528C98.2254 63.3744 93.5246 62.745 89.252 64.2827C87.0953 65.0605 84.7199 65.0605 82.5599 64.2827C80.431 63.5153 78.1866 63.2834 75.9035 63.5927C73.6724 63.8949 71.5648 64.7791 69.7182 66.1119L68.2146 63.3628C67.6334 62.2961 65.8796 62.2961 65.298 63.3628L62.8166 67.8998L58.2796 70.3804C57.7454 70.6718 57.4141 71.2313 57.4141 71.8395C57.4141 72.4477 57.7454 73.0072 58.2796 73.2986L62.8166 75.78L63.853 77.674ZM104.76 85.9021C104.48 86.0547 104.251 86.2845 104.099 86.5631L103.339 87.9515L102.579 86.5631C102.426 86.2845 102.197 86.0547 101.918 85.9021L100.529 85.1422L101.918 84.3831C102.197 84.2305 102.426 84.0006 102.579 83.7221L103.339 82.3336L104.099 83.7221C104.251 84.0006 104.48 84.2305 104.76 84.3831L106.148 85.1422L104.76 85.9021ZM76.3488 66.8884C78.106 66.6531 79.8125 66.8281 81.4329 67.4122C84.32 68.4515 87.4948 68.4515 90.3789 67.4122C93.6639 66.2274 97.3421 66.745 100.726 68.8713C101.488 69.3473 102.142 70.0079 102.622 70.7811C104.042 73.0762 104.707 75.499 104.627 77.8477C103.933 77.0221 102.416 77.0891 101.881 78.071L99.897 81.6997L96.2679 83.6839C95.7337 83.9753 95.4024 84.5348 95.4024 85.143C95.4024 85.7504 95.7337 86.3099 96.2679 86.6021L99.8446 88.5593C99.4418 89.4219 99.012 90.4537 98.7447 91.421C98.5954 91.9619 98.3356 93.5752 97.8517 96.6166C97.3549 99.7385 96.7376 103.624 96.2537 105.974C96.085 106.796 95.5653 107.469 94.8669 107.774C94.2937 108.023 94.1037 107.893 94.0305 107.844C93.4053 107.435 92.8969 105.79 92.8969 104.177V95.8558C92.8969 92.1926 89.9171 89.212 86.2539 89.212C84.4759 89.212 82.8031 89.9054 81.548 91.1654C80.2926 92.4246 79.6042 94.0974 79.6092 95.8754L79.6349 104.299C79.6349 105.719 78.9968 107.043 77.8861 107.93C77.4396 108.285 76.9653 108.2 76.725 108.118C76.2719 107.964 75.936 107.598 75.8237 107.14C75.4064 105.432 74.7242 101.466 74.1235 97.9685C73.3507 93.4647 72.8618 90.6586 72.5629 89.7599C72.0383 88.1752 70.7961 85.6955 69.6272 84.2891C68.7758 83.2661 68.1377 82.1008 67.722 80.8587C67.9203 80.7161 68.0953 80.5399 68.2163 80.3179L70.6976 75.7808L75.2347 73.2995C75.7689 73.0081 76.1002 72.4485 76.1002 71.8403C76.1002 71.2321 75.7689 70.6726 75.2347 70.3812L71.9543 68.5878C73.2862 67.6928 74.7799 67.1004 76.3488 66.8884ZM64.8386 70.5841C65.118 70.4315 65.347 70.2016 65.4996 69.9231L66.7563 67.6263L68.013 69.9231C68.1655 70.2016 68.3946 70.4315 68.674 70.5841L70.9699 71.8395L68.674 73.0954C68.3946 73.2479 68.1655 73.4778 68.013 73.7563L66.7846 76.0016C66.7384 75.9446 66.6935 75.8922 66.6403 75.8415L65.4992 73.7559C65.3466 73.4774 65.1176 73.2475 64.8382 73.0949L62.5422 71.8391L64.8386 70.5841Z" fill="white"/>
<defs>
<linearGradient id="paint0_linear" x1="83.9375" y1="-3.16326" x2="243.461" y2="106.084" gradientUnits="userSpaceOnUse">
<stop stop-color="#A18CD1"/>
<stop offset="1" stop-color="#FBC2EB"/>
</linearGradient>
</defs>
</svg>
