<svg width="170" height="170" viewBox="0 0 170 170" fill="none" xmlns="http://www.w3.org/2000/svg">
<circle cx="85" cy="85" r="85" fill="url(#paint0_linear)"/>
<path d="M78.406 64.5088C79.2496 64.5088 79.9331 63.8252 79.9331 62.9817V60.9773C79.9331 60.1337 79.2496 59.4502 78.406 59.4502C77.5624 59.4502 76.8789 60.1337 76.8789 60.9773V62.9817C76.8789 63.8252 77.5626 64.5088 78.406 64.5088Z" fill="white"/>
<path d="M91.5632 64.5089C92.4068 64.5089 93.0903 63.8254 93.0903 62.9818V60.9774C93.0903 60.1338 92.4068 59.4503 91.5632 59.4503C90.7197 59.4503 90.0361 60.1338 90.0361 60.9774V62.9818C90.0361 63.8254 90.7199 64.5089 91.5632 64.5089Z" fill="white"/>
<path d="M84.9994 76.6425C87.9533 76.6425 90.3563 74.2395 90.3563 71.2856C90.3563 70.4421 89.6728 69.7585 88.8292 69.7585C87.9856 69.7585 87.3021 70.4421 87.3021 71.2856C87.3021 72.5552 86.2692 73.5883 84.9994 73.5883C83.7297 73.5883 82.6968 72.5554 82.6968 71.2856C82.6968 70.4421 82.0133 69.7585 81.1697 69.7585C80.3261 69.7585 79.6426 70.4421 79.6426 71.2856C79.6426 74.2395 82.0456 76.6425 84.9994 76.6425Z" fill="white"/>
<path d="M134.87 120.383C134.56 119.429 133.75 118.746 132.756 118.601L128.685 118.01L126.864 114.32C126.42 113.42 125.52 112.861 124.516 112.861C123.513 112.861 122.613 113.42 122.169 114.32L120.348 118.01L119.266 118.167V103.815C119.266 99.5715 116.564 95.812 112.543 94.4191C110.401 93.6771 108.975 96.3978 111.566 97.3128C114.335 98.2912 116.212 100.877 116.212 103.815V118.613C115.983 118.652 115.765 118.719 115.561 118.812C114.281 118.229 112.099 118.152 110.773 118.01L108.953 114.321C108.757 113.925 108.474 113.595 108.132 113.349V107.262C108.132 106.418 107.448 105.735 106.605 105.735C105.761 105.735 105.078 106.418 105.078 107.262V113.349C104.736 113.595 104.453 113.925 104.257 114.321L102.436 118.01C101.059 118.192 99.3352 118.278 97.9771 118.689C96.5792 117.616 92.816 117.405 91.239 117.31L89.7439 106.197L91.8798 102.399L96.8533 105.438C97.781 106.005 99.1765 105.375 99.1765 104.135V93.0758L105.158 95.1223C105.936 95.3724 106.582 95.0555 107.097 94.1719C107.371 93.3739 106.945 92.5057 106.147 92.2328L95.4616 88.5771V82.5976C99.8686 79.3443 101.905 73.7125 101.849 68.4053H103.388C106.576 68.4053 109.17 65.8114 109.17 62.6232V59.4348C109.17 57.0855 107.761 55.0604 105.744 54.1565V47.1512C105.744 40.7681 101.445 35.15 95.2893 33.4883C94.4755 33.2686 93.637 33.7503 93.4171 34.5648C93.1974 35.379 93.6794 36.2171 94.4936 36.437C99.3195 37.7393 102.69 42.1451 102.69 47.151V51.8928C99.1912 48.1807 93.4768 46.2406 89.0471 50.0236C86.5797 51.8447 84.1081 51.8565 81.6323 50.0592C77.2548 46.3726 71.3716 48.3704 67.7965 51.9062V47.1512C67.7965 41.0322 72.7745 36.0542 78.8935 36.0542H88.2353C89.0789 36.0542 89.7624 35.3707 89.7624 34.5271C89.7624 33.6835 89.0789 33 88.2353 33H78.8935C71.0906 33 64.7423 39.3483 64.7423 47.1512V53.9639C62.4689 54.7432 60.8296 56.9001 60.8296 59.434V62.6224C60.8296 65.8106 63.4235 68.4045 66.6117 68.4045H68.1508C68.0948 73.7117 70.1312 79.3434 74.5382 82.5968V88.5761L57.445 94.4229C53.4307 95.7971 50.7336 99.5713 50.7336 103.815V107.097C50.7336 107.941 51.4172 108.624 52.2607 108.624C53.1043 108.624 53.7878 107.941 53.7878 107.097V103.815C53.7878 100.877 55.655 98.2639 58.4337 97.3126L70.8234 93.0748V104.134C70.8234 105.376 72.2188 106.003 73.1467 105.437L78.1202 102.398L80.2561 106.197L78.7603 117.315C77.1839 117.408 73.4203 117.615 72.0229 118.688C70.6648 118.278 68.941 118.192 67.5636 118.009L65.7429 114.32C65.5474 113.924 65.2638 113.594 64.9223 113.349V107.261C64.9223 106.418 64.2388 105.734 63.3952 105.734C62.5516 105.734 61.8681 106.418 61.8681 107.261V113.349C61.5264 113.594 61.2428 113.924 61.0473 114.32L59.2266 118.009C57.9009 118.151 55.7185 118.228 54.4394 118.811C54.2354 118.718 54.0167 118.652 53.788 118.613V113.751C53.788 112.908 53.1045 112.224 52.2609 112.224C51.4174 112.224 50.7338 112.908 50.7338 113.751V118.167L49.652 118.01L47.8313 114.32C47.3868 113.42 46.4873 112.861 45.4836 112.861C44.4796 112.861 43.58 113.42 43.1358 114.32L41.315 118.01L37.2434 118.601C36.2501 118.746 35.4404 119.429 35.1301 120.383C34.8199 121.338 35.0737 122.366 35.7924 123.067L38.7387 125.939L38.0434 129.994C37.8736 130.983 38.2726 131.965 39.0847 132.555C39.8969 133.145 40.9534 133.221 41.8422 132.754L45.4836 130.839L49.1255 132.754C50.0637 133.217 50.9829 133.15 51.8828 132.555C52.6948 131.965 53.0939 130.983 52.9241 129.994L52.2286 125.939L54.4396 123.784L56.6507 125.939L55.9551 129.994C55.7853 130.983 56.1844 131.965 56.9964 132.555C57.8084 133.145 58.8652 133.221 59.754 132.754L63.3954 130.839L67.0372 132.754C67.9755 133.217 68.8946 133.15 69.7946 132.555C70.6066 131.965 71.0057 130.983 70.8359 129.994L70.1405 125.939L72.2897 123.844L76.1496 127.614L75.1124 133.66C74.9132 134.819 75.3809 135.969 76.3328 136.661C77.3874 137.359 78.4645 137.437 79.564 136.894L85.0066 134.039L90.4366 136.894C91.4775 137.441 92.7155 137.352 93.6678 136.661C94.6197 135.969 95.0874 134.819 94.8882 133.66L93.8553 127.601L97.7103 123.843L99.8601 125.939L99.1647 129.994C98.9949 130.983 99.394 131.964 100.206 132.554C101.018 133.144 102.075 133.221 102.964 132.754L106.605 130.839L110.247 132.754C111.185 133.216 112.104 133.15 113.004 132.554C113.816 131.964 114.215 130.983 114.045 129.994L113.35 125.939L115.561 123.784L117.772 125.939L117.076 129.994C116.907 130.983 117.306 131.964 118.118 132.554C118.93 133.144 119.987 133.221 120.875 132.754L124.517 130.839L128.159 132.754C129.097 133.216 130.016 133.15 130.916 132.554C131.728 131.964 132.127 130.983 131.957 129.994L131.262 125.939L134.208 123.067C134.926 122.366 135.18 121.338 134.87 120.383ZM87.269 104.366H82.7306L80.7281 100.805L84.9997 98.1961L89.2713 100.805L87.269 104.366ZM83.1729 107.421H86.8263L87.3129 111.037C85.7708 109.634 84.2284 109.634 82.6862 111.037L83.1729 107.421ZM92.4011 88.9211L84.9997 94.494L77.5983 88.9211V84.3617C81.6883 86.1405 88.3109 86.1405 92.4009 84.3617V88.9211H92.4011ZM96.1219 101.411L87.7133 96.274L94.2077 91.3838L96.1217 92.0335V101.411H96.1219ZM106.116 62.6224C106.116 64.1267 104.892 65.3503 103.388 65.3503H101.849V56.706H103.388C104.892 56.706 106.116 57.9297 106.116 59.4338V62.6224ZM66.6115 65.3505C65.1072 65.3505 63.8837 64.1267 63.8837 62.6226V59.4342C63.8837 57.9299 65.1074 56.7064 66.6115 56.7064H68.1506V65.3507H66.6115V65.3505ZM71.2048 69.9784V53.0344C73.5327 51.0162 77.0264 50.1739 79.6678 52.3983C83.4616 55.1553 87.2492 55.1378 91.0307 52.346C93.3976 50.3255 96.5524 50.9435 98.7946 52.6028V69.9786C98.7946 86.7424 71.2048 86.7424 71.2048 69.9784ZM73.8775 92.0337L75.7914 91.384L82.2859 96.2742L73.8773 101.412V92.0337H73.8775ZM49.9322 123.912C49.3151 124.513 49.0332 125.379 49.179 126.229L49.7638 129.639L46.701 128.029C45.9383 127.629 45.0277 127.628 44.2646 128.029L41.202 129.639L41.7868 126.23C41.933 125.38 41.6514 124.513 41.0341 123.912L38.5565 121.497L41.9807 120.999C42.8332 120.875 43.5699 120.34 43.9518 119.567L45.4832 116.464L47.0144 119.567C47.3958 120.34 48.1327 120.875 48.986 120.999L52.4096 121.497L49.9322 123.912ZM67.844 123.912C67.2264 124.513 66.9448 125.38 67.0908 126.229L67.6758 129.639L64.6128 128.029C63.8006 127.628 62.9886 127.629 62.1763 128.029L59.114 129.639L59.699 126.229C59.8446 125.379 59.5628 124.513 58.9458 123.912L56.4684 121.497L59.8924 120.999C60.7449 120.875 61.4816 120.34 61.8636 119.567L63.395 116.464L64.9264 119.568C65.3079 120.34 66.0446 120.875 66.8976 120.999L70.3213 121.497L67.844 123.912ZM96.1156 121.132L91.7228 125.414C90.9996 126.119 90.6697 127.134 90.8406 128.13L91.8819 134.18C91.8784 134.186 91.8668 134.194 91.8574 134.191L86.4276 131.336C85.5332 130.866 84.466 130.866 83.5721 131.336L78.1397 134.196C78.1332 134.195 78.121 134.186 78.1218 134.176L79.1592 128.13C79.3298 127.134 79 126.119 78.2767 125.414L73.8779 121.132C73.8773 121.125 73.8819 121.111 73.8913 121.109L79.9621 120.227C80.927 120.086 81.8257 119.452 82.2723 118.548L84.986 113.041C84.9922 113.039 85.007 113.039 85.005 113.035C85.005 113.035 85.0078 113.039 85.0121 113.047L87.7269 118.549C88.1736 119.453 89.072 120.087 90.0373 120.227L96.1132 121.106C96.1176 121.111 96.1221 121.125 96.1156 121.132ZM111.054 123.912C110.437 124.513 110.155 125.379 110.301 126.229L110.885 129.639L107.823 128.029C107.06 127.629 106.149 127.628 105.386 128.029L102.324 129.639L102.908 126.23C103.055 125.38 102.773 124.513 102.156 123.912L99.678 121.497L103.102 120.999C103.955 120.875 104.691 120.34 105.073 119.567L106.605 116.464L108.136 119.568C108.518 120.34 109.254 120.875 110.107 120.999L113.531 121.497L111.054 123.912ZM128.966 123.912C128.348 124.513 128.066 125.38 128.212 126.229L128.797 129.639L125.734 128.029C124.922 127.628 124.11 127.629 123.298 128.029L120.236 129.639L120.821 126.229C120.966 125.379 120.684 124.513 120.067 123.912L117.59 121.497L121.014 120.999C121.867 120.875 122.604 120.34 122.985 119.567L124.517 116.464L126.048 119.568C126.43 120.34 127.166 120.875 128.019 120.999L131.443 121.497L128.966 123.912Z" fill="white"/>
<defs>
<linearGradient id="paint0_linear" x1="83.9375" y1="-3.16326" x2="243.461" y2="106.084" gradientUnits="userSpaceOnUse">
<stop stop-color="#A18CD1"/>
<stop offset="1" stop-color="#FBC2EB"/>
</linearGradient>
</defs>
</svg>
